<?xml version="1.0" encoding="UTF-8"?>
<svg width="14" height="14" viewBox="0 0 60 60" version="1.1" xmlns="http://www.w3.org/2000/svg" xmlns:xlink="http://www.w3.org/1999/xlink">
    <g id="Page-1" stroke="none" stroke-width="1" fill="none" fill-rule="evenodd">
        <g id="search" fill-rule="nonzero" fill="#183247">
            <path d="M30.7377049,19.9294915 L30.7377049,1.27118644 C30.7377049,0.0168448055 31.7505689,-1 33,-1 C34.2494311,-1 35.2622951,0.0168448055 35.2622951,1.27118644 L35.2622951,19.9294915 C46.9030044,21.0704361 56,30.9234864 56,42.9096045 C56,55.6620778 45.7025492,66 33,66 C20.2974508,66 10,55.6620778 10,42.9096045 C10,30.9234864 19.0969956,21.0704361 30.7377049,19.9294915 L30.7377049,19.9294915 Z M33,61.4576271 C43.2036871,61.4576271 51.4754098,53.1533945 51.4754098,42.9096045 C51.4754098,32.6658145 43.2036871,24.3615819 33,24.3615819 C22.7963129,24.3615819 14.5245902,32.6658145 14.5245902,42.9096045 C14.5245902,53.1533945 22.7963129,61.4576271 33,61.4576271 Z" transform="translate(33.000000, 32.500000) scale(1, -1) rotate(45.000000) translate(-33.000000, -32.500000) "></path>
        </g>
    </g>
</svg>
